<svg width="30" height="31" viewBox="0 0 30 31" fill="none" xmlns="http://www.w3.org/2000/svg">
<g filter="url(#filter0_d_1_26)">
<path d="M18 2V12C18 13.1 17.1 14 16 14H5V6C5 3.79 6.79 2 9 2H18Z" stroke="#292D32" stroke-width="1.5" stroke-linecap="round" stroke-linejoin="round"/>
<path d="M25 14V17C25 18.66 23.66 20 22 20H21C21 18.9 20.1 18 19 18C17.9 18 17 18.9 17 20H13C13 18.9 12.1 18 11 18C9.9 18 9 18.9 9 20H8C6.34 20 5 18.66 5 17V14H16C17.1 14 18 13.1 18 12V5H19.84C20.56 5 21.22 5.39001 21.58 6.01001L23.29 9H22C21.45 9 21 9.45 21 10V13C21 13.55 21.45 14 22 14H25Z" stroke="#292D32" stroke-width="1.5" stroke-linecap="round" stroke-linejoin="round"/>
<path d="M11 22C12.1046 22 13 21.1046 13 20C13 18.8954 12.1046 18 11 18C9.89543 18 9 18.8954 9 20C9 21.1046 9.89543 22 11 22Z" stroke="#292D32" stroke-width="1.5" stroke-linecap="round" stroke-linejoin="round"/>
<path d="M19 22C20.1046 22 21 21.1046 21 20C21 18.8954 20.1046 18 19 18C17.8954 18 17 18.8954 17 20C17 21.1046 17.8954 22 19 22Z" stroke="#292D32" stroke-width="1.5" stroke-linecap="round" stroke-linejoin="round"/>
<path d="M25 12V14H22C21.45 14 21 13.55 21 13V10C21 9.45 21.45 9 22 9H23.29L25 12Z" stroke="#292D32" stroke-width="1.5" stroke-linecap="round" stroke-linejoin="round"/>
</g>
<defs>
<filter id="filter0_d_1_26" x="0.25" y="1.25" width="29.5" height="29.5" filterUnits="userSpaceOnUse" color-interpolation-filters="sRGB">
<feFlood flood-opacity="0" result="BackgroundImageFix"/>
<feColorMatrix in="SourceAlpha" type="matrix" values="0 0 0 0 0 0 0 0 0 0 0 0 0 0 0 0 0 0 127 0" result="hardAlpha"/>
<feOffset dy="4"/>
<feGaussianBlur stdDeviation="2"/>
<feComposite in2="hardAlpha" operator="out"/>
<feColorMatrix type="matrix" values="0 0 0 0 0 0 0 0 0 0 0 0 0 0 0 0 0 0 0.25 0"/>
<feBlend mode="normal" in2="BackgroundImageFix" result="effect1_dropShadow_1_26"/>
<feBlend mode="normal" in="SourceGraphic" in2="effect1_dropShadow_1_26" result="shape"/>
</filter>
</defs>
</svg>
